<?xml version="1.0" standalone="no"?><!DOCTYPE svg PUBLIC "-//W3C//DTD SVG 1.1//EN"
        "http://www.w3.org/Graphics/SVG/1.1/DTD/svg11.dtd">
<svg t="1603248846077" class="icon" viewBox="0 0 1024 1024" version="1.1" xmlns="http://www.w3.org/2000/svg" p-id="7870"
     xmlns:xlink="http://www.w3.org/1999/xlink" width="200" height="200">
    <defs>
        <style type="text/css"></style>
    </defs>
    <path d="M323.36 762.688h373.344c35.296 0 64-28.704 64-64V512a16 16 0 0 0-32 0v186.656c0 17.632-14.368 32-32 32H323.36c-17.632 0-32-14.368-32-32V325.344c0-17.632 14.368-32 32-32h186.656a16 16 0 0 0 0-32h-186.656c-35.296 0-64 28.704-64 64v373.344c0 35.296 28.704 64 64 64zM751.392 379.168a15.936 15.936 0 0 0 22.656 0 16 16 0 0 0 0-22.624L683.52 266.016a16 16 0 0 0-22.624 22.624l90.496 90.528z"
          fill="#666666" p-id="7871"></path>
    <path d="M440.736 488.288l-11.328 101.824a15.968 15.968 0 0 0 17.696 17.664l101.824-11.328a15.904 15.904 0 0 0 9.536-4.608l167.456-167.456a16 16 0 0 0 0-22.656l-90.528-90.496a16 16 0 0 0-22.624 0l-167.456 167.456a16.608 16.608 0 0 0-4.576 9.6z m31.2 9.12l152.16-152.16 67.904 67.872-152.192 152.192-76.352 8.48 8.48-76.384z"
          fill="#666666" p-id="7872"></path>
</svg>